DataType=double
version=3
OpenSimVersion=4.4-2022-10-11-798caa840
endheader
time	ground_force_r_vx	ground_force_r_vy	ground_force_r_vz	ground_force_r_px	ground_force_r_py	ground_force_r_pz	ground_force_l_vx	ground_force_l_vy	ground_force_l_vz	ground_force_l_px	ground_force_l_py	ground_force_l_pz	ground_torque_r_x	ground_torque_r_y	ground_torque_r_z	ground_torque_l_x	ground_torque_l_y	ground_torque_l_z
1.965	118.5010783207454	827.7577226487238	-41.26770748405005	1.656282111578378	0	-0.3876464513355212	-5.912828144621291	7.014654348549708	-3.698202954146969	2.122176468041086	0	-0.5581216786541694	0	-2.312363343530251	0	0	1.575110974982863e-08	0
1.97	122.3722522287293	815.5785963272151	-41.09431199396246	1.658079858203038	0	-0.3889673540332917	-10.83385795982041	18.91556640238709	-13.4207311855987	2.122320805819213	0	-0.5574200952489586	0	-2.064537921538488	0	0	8.791234407112825e-08	0
1.975	125.5315848352069	800.0831124179931	-39.5281108699937	1.659970164170391	0	-0.3903276172394123	-0.92386700905901	40.4449836508984	-22.86660906865376	2.122149204756778	0	-0.5576924109139706	0	-1.799940121807396	0	0	5.767605188111702e-06	0
1.98	128.5942219120714	781.3572171786783	-38.23492152321043	1.66190405611152	0	-0.391603486420193	14.44665967102946	86.22704438426184	-30.05893756386185	2.122832245412509	0	-0.5577791506779761	0	-1.63199617257682	0	0	7.706338728041828e-05	0
1.985	131.4991163275228	759.416248990188	-37.09635452423261	1.663850566906191	0	-0.3926765732345806	9.282431249007661	198.1755633063033	-36.97783619981046	2.123403422176995	0	-0.5575927172953534	0	-1.634755264038297	0	0	0.0006016610416992307	0
1.99	133.6549161218709	734.1566109881447	-35.43104815663304	1.665814437494013	0	-0.3934582571585961	-17.08002219356379	328.8634599245623	-36.80825693183646	2.123842534147785	0	-0.5573853307009545	0	-1.767993298332485	0	0	0.003728351270169128	0
1.995	135.4285724121757	705.7570876315563	-34.24396483569848	1.667811089062569	0	-0.3939941260094279	-29.84357736687891	424.7313948877028	-42.37862876854237	2.124502349241462	0	-0.5573133952341583	0	-1.919597348795143	0	0	0.01857841905312796	0
2	137.0732230183999	673.0656954952326	-32.777627856682	1.669906379835381	0	-0.3943397824880064	-49.86985770742329	481.8352071229934	-41.63995173422682	2.12520547812926	0	-0.5572844034553391	0	-1.987382554435655	0	0	0.07138490223287874	0
2.005	137.8643506371903	635.08112781609	-30.34727495075051	1.672200278658868	0	-0.3944941871969188	-66.63883376531368	516.8639235484468	-37.73011693853216	2.126184585166763	0	-0.5573989809961548	0	-1.943524628572284	0	0	0.2050289630771545	0
2.01	137.3553164434405	593.4122039421254	-27.7648860381025	1.674784887610343	0	-0.3944906393643134	-81.28904063883411	541.3800595002373	-33.15454054555975	2.127634473676696	0	-0.5578025738416382	0	-1.815190772750107	0	0	0.4486791425527485	0
2.015	135.313710485502	549.6314883035994	-24.55697882834954	1.677742329503809	0	-0.3943235998984306	-92.90523193230936	563.5205678491303	-26.6579906610597	2.129637692224562	0	-0.5585307441712956	0	-1.631058880033052	0	0	0.7558664939548976	0
2.02	130.8016135546832	503.6745646542485	-20.87852511541522	1.6811299999285	0	-0.3938746705661773	-101.6925132116636	584.5712523288006	-18.76808748749016	2.131932531444423	0	-0.559446185272549	0	-1.415329605515403	0	0	1.019607803165172	0
2.025	125.4349159755331	452.5131612523908	-16.88913063139954	1.685315250118074	0	-0.3932286540767979	-107.6722279220021	608.6867775279967	-9.946996014860732	2.135153892616327	0	-0.5609134687598993	0	-1.139664827013497	0	0	1.375737496881232	0
2.03	119.24706864051	391.0955497308662	-12.27052002310878	1.691033248110591	0	-0.3924248250647079	-113.9428210090767	646.9646989674128	-0.3356677926179197	2.140629961851574	0	-0.5637163834393479	0	-0.7965283288806866	0	0	1.892600871025006	0
2.035	107.3335632384661	318.0340467037367	-8.201434780362018	1.699382297135755	0	-0.391439611377996	-120.4846073326477	689.6640443365245	10.50339258131451	2.147435096907306	0	-0.5672588856528984	0	-0.4216606830968157	0	0	2.227217886911799	0
2.04	90.94588644506145	242.1432039943015	-4.73512280330147	1.711719884015075	0	-0.3902682541657412	-128.1963674226348	724.2733590756126	20.31093236292775	2.154475343670075	0	-0.5707795784803166	0	-0.08977524657705516	0	0	2.471593389246365	0
2.045	79.61366796080512	206.1611918035145	1.18496271518436	1.715466906977792	0	-0.392264663046455	-134.0045798874463	747.1856436597586	29.06503112615931	2.161326047749375	0	-0.5738840451512223	0	-0.01256194628267204	0	0	2.703126227508797	0
2.05	72.60898059778071	183.9328264169378	4.588490982786666	1.716559216617094	0	-0.3932002417082111	-138.1660674782684	763.5441857702298	36.36887635988873	2.168478914372279	0	-0.5765739885267263	0	0.0006804157113231568	0	0	2.896485338651232	0
2.055	67.01991377661061	174.2390248185841	6.833573060884195	1.717121776616763	0	-0.3930892939211242	-142.6786821125808	783.26022151653	42.87559382803049	2.177144362557308	0	-0.5792577707392873	0	0.0001469704771039915	0	0	2.861396002983895	0
2.06	56.09477831169465	165.1156338486362	8.4982761453051	1.71767723087142	0	-0.3930367360480711	-144.5254604538987	798.1947456940404	47.99259008957766	2.186456728526885	0	-0.5817104770197979	0	3.341728032424385e-05	0	0	2.573327880943964	0
2.065	47.50419423228092	153.0827446258669	7.957930540693629	1.718419822253102	0	-0.393035570356604	-144.0183505391279	803.7622415938774	51.92906996514584	2.195620601832086	0	-0.5836475011943059	0	2.920927535399187e-06	0	0	2.390115570300679	0
2.07	37.53024666971121	135.7926468038129	7.840430279009735	1.719277681215851	0	-0.393021560084028	-143.1295593732402	806.5413491287317	56.14077357499965	2.204200751682513	0	-0.5848160713043008	0	5.150764970096589e-08	0	0	2.297466813142023	0
2.075	29.31431540980955	113.5087282881511	6.312198044062207	1.720332565362602	0	-0.393045551605958	-140.9805170947056	810.5753765690346	59.6746230532858	2.211623665605768	0	-0.5852434115638115	0	1.56274992946237e-10	0	0	2.375948374232223	0
2.08	21.95559100685792	89.14259823563212	3.78497840318405	1.72154062517068	0	-0.393117606954667	-138.3205954600012	817.3718132741343	63.5636077962138	2.217959014174615	0	-0.5851991120405196	0	1.092459456231154e-13	0	0	2.561194579964166	0
2.085	10.59127595535704	62.30438722030249	5.203579217916158	1.722721997714847	0	-0.3930720220548176	-136.3008065799528	827.617469779589	66.36074227256778	2.223438377066035	0	-0.5848357204500705	0	0	0	0	2.791559320690567	0
2.09	-5.302185165519092	31.02889855072143	8.781437065890394	1.723722334290921	0	-0.3928688446784606	-134.1562917637507	841.0400674347622	68.21654888704131	2.227955985700841	0	-0.5843016486876369	0	0	0	0	2.92451473205395	0
2.095	-2.434200925293013	3.138101759374779	1.596297647003056	1.725461630029803	0	-0.3931942248995089	-131.8573054325866	856.8212866665873	69.25346590851285	2.23145116645763	0	-0.5837974763792622	0	4.440892098500626e-16	0	0	2.831118999857466	0
2.1	0.09688623589602834	-0.1037760473887667	-0.04461806042662664	1.729405403248051	0	-0.3943969531971131	-130.0223801457882	869.8962201283448	68.58879800600748	2.234275065740335	0	-0.5834042069369626	0	1.387778780781446e-17	0	0	2.62732838595079	0
2.105	0.08644922170128448	-0.08447809994293765	-0.03226507385230151	1.734378852819221	0	-0.3956152948175749	-127.9952444018808	878.1927167782209	66.56755549734136	2.236832050629627	0	-0.5830976982901369	0	-6.938893903907228e-18	0	0	2.509594578237312	0
2.11	-1.009640654109241	0.9053155995829052	0.3125288899237225	1.740096822071524	0	-0.3968029979628841	-125.4456722928987	884.4131660260454	64.10734933398234	2.239169044578136	0	-0.5828587173053953	0	1.110223024625157e-16	0	0	2.405483092590572	0
2.115	-0.1615347799283343	0.1303084807449671	0.03923770350981109	1.746868890353359	0	-0.397966458109678	-122.7437307630876	889.180726108071	61.39677224977346	2.241245208991205	0	-0.5826886658913494	0	0	0	0	2.2519167006011	0
2.12	-0.001896272281927697	0.001401783541553195	0.0003815907567154167	1.75480523488319	0	-0.3991425035414227	-119.724712865935	891.0499207864195	58.86526512136555	2.243113367905701	0	-0.5825905818702596	0	7.047314121155779e-18	0	0	2.133196885827545	0
2.125	-0.1191857397554355	0.08255710485543161	0.0213353341786616	1.763683993933282	0	-0.4003547565034236	-116.343241243221	889.9609202468392	56.8793732367215	2.244892067507581	0	-0.5825546787629111	0	7.632783294297951e-17	0	0	2.03053147652264	0
2.13	-0.1294259133434067	0.08425283852585633	0.02103627083403191	1.773456996308145	0	-0.4015987195698207	-112.8104937313233	886.5581650292339	55.53407048258865	2.246639967964542	0	-0.5825601015016347	0	6.38378239159465e-16	0	0	1.898518513315778	0
2.135	-0.06888814074814253	0.04206247318710377	0.01005205434508398	1.7842360952989	0	-0.4028533438817752	-109.2726092231832	881.0716785736391	54.64990864108452	2.24836807927435	0	-0.5825976342479267	0	2.185751579730777e-15	0	0	1.756199636199142	0
2.14	-0.04707664033438841	0.02715163044833807	0.006211814569141052	1.795960731741147	0	-0.4041133310484081	-105.8287388835823	873.562341295155	54.19046622888571	2.250101077269892	0	-0.5826588563435356	0	8.324937961212697e-15	0	0	1.617613524019305	0
2.145	-0.03673457434564017	0.02016371784050298	0.004451766566417792	1.80850568272231	0	-0.4053804582208644	-102.6276667938223	864.1265910833354	54.0075903192698	2.251850218798233	0	-0.582739517848304	0	3.368312573304166e-14	0	0	1.495869226054467	0
